<svg xmlns="http://www.w3.org/2000/svg" width="118" height="118" viewBox="0 0 118 118" fill="none"><path d="M84.86 26.4426H32.6471C29.7634 26.4426 27.4258 28.7803 27.4258 31.6639V83.8768C27.4258 86.7605 29.7634 89.0981 32.6471 89.0981H84.86C87.7436 89.0981 90.0813 86.7605 90.0813 83.8768V31.6639C90.0813 28.7803 87.7436 26.4426 84.86 26.4426Z" stroke="#361997" stroke-width="5" stroke-linecap="round" stroke-linejoin="round"></path><path d="M39.6094 69.9534V45.5874H53.5328" stroke="#361997" stroke-width="5" stroke-linecap="round" stroke-linejoin="round"></path><path d="M39.6094 57.7704H52.6626" stroke="#361997" stroke-width="5" stroke-linecap="round" stroke-linejoin="round"></path><path d="M39.6094 69.9534H52.6626" stroke="#361997" stroke-width="5" stroke-linecap="round" stroke-linejoin="round"></path><path d="M62.2344 69.9534V49.0682" stroke="#361997" stroke-width="5" stroke-linecap="round" stroke-linejoin="round"></path><path d="M62.2344 69.9535V58.6407C62.2344 56.5635 63.0595 54.5714 64.5283 53.1026C65.9971 51.6339 67.9892 50.8087 70.0663 50.8087C72.1435 50.8087 74.1356 51.6339 75.6043 53.1026C77.0731 54.5714 77.8983 56.5635 77.8983 58.6407V69.9535" stroke="#361997" stroke-width="5" stroke-linecap="round" stroke-linejoin="round"></path><circle cx="58.7532" cy="58.7532" r="56.7532" stroke="#361997" stroke-width="4"></circle></svg>