<svg xmlns="http://www.w3.org/2000/svg" width="118" height="118" viewBox="0 0 118 118" fill="none"><g clip-path="url(#clip0_522_31)"><path d="M58.527 44.9507L76.809 54.1523V90.9586H40.2449V54.1523L58.527 44.9507ZM58.527 44.9507V24.2472V44.9507ZM24.248 90.9586H92.8059H24.248ZM31.1038 90.9586V63.3539H40.2449L31.1038 90.9586ZM85.9501 90.9586V63.3539H76.809L85.9501 90.9586ZM53.9564 90.9586V77.1563H63.0975V90.9586H53.9564ZM58.527 26.5476H72.2385V35.7492H58.527V26.5476ZM58.527 67.9547C57.3148 67.9547 56.1522 67.47 55.2951 66.6071C54.438 65.7443 53.9564 64.5741 53.9564 63.3539C53.9564 62.1337 54.438 60.9635 55.2951 60.1006C56.1522 59.2378 57.3148 58.7531 58.527 58.7531C59.7391 58.7531 60.9017 59.2378 61.7588 60.1006C62.6159 60.9635 63.0975 62.1337 63.0975 63.3539C63.0975 64.5741 62.6159 65.7443 61.7588 66.6071C60.9017 67.47 59.7391 67.9547 58.527 67.9547Z" stroke="#361997" stroke-width="4"></path></g><circle cx="58.7532" cy="58.7532" r="56.7532" stroke="#361997" stroke-width="4"></circle><defs><clipPath id="clip0_522_31"><rect width="68.5578" height="69.0118" fill="white" transform="translate(24.248 24.2472)"></rect></clipPath></defs></svg>