<svg xmlns="http://www.w3.org/2000/svg" width="118" height="118" viewBox="0 0 118 118" fill="none"><path fill-rule="evenodd" clip-rule="evenodd" d="M47.0303 65.9958C46.9727 65.8791 46.9161 65.7619 46.8605 65.6441C46.442 64.7659 45.9267 63.6816 45.0561 63.8918C34.3875 66.4516 23.3398 73.8436 23.3398 81.6997V93H94.4113V81.6997C94.4113 73.8436 83.3636 66.4516 72.695 63.8918C71.702 63.6525 70.6754 65.0926 70.2272 65.9937H47.0303V65.9958ZM62.2021 70.158H44.6474L43.8301 68.5202C39.6646 69.7855 35.6135 71.7958 32.5239 74.1724C28.7294 77.0901 27.2883 79.8205 27.2883 81.6997V88.8379H90.4628V81.6997C90.4628 79.8205 89.0217 77.0901 85.2272 74.1724C82.029 71.7146 77.8042 69.6481 73.4906 68.3932L72.6101 70.158H62.2021V70.158Z" fill="#361997"></path><path fill-rule="evenodd" clip-rule="evenodd" d="M43.0828 82.6261C44.1449 82.6261 45.057 81.7104 45.057 80.5138C45.057 79.3192 44.1449 78.4015 43.0828 78.4015C42.0206 78.4015 41.1086 79.3172 41.1086 80.5138C41.1086 81.7083 42.0206 82.6261 43.0828 82.6261ZM43.0828 86.7571C44.6535 86.7571 46.16 86.0993 47.2707 84.9285C48.3814 83.7576 49.0054 82.1696 49.0054 80.5138C49.0054 78.858 48.3814 77.27 47.2707 76.0991C46.16 74.9283 44.6535 74.2705 43.0828 74.2705C41.512 74.2705 40.0056 74.9283 38.8948 76.0991C37.7841 77.27 37.1602 78.858 37.1602 80.5138C37.1602 82.1696 37.7841 83.7576 38.8948 84.9285C40.0056 86.0993 41.512 86.7571 43.0828 86.7571V86.7571Z" fill="#361997"></path><path fill-rule="evenodd" clip-rule="evenodd" d="M70.9296 75.4214C71.0934 75.0757 71.3453 74.785 71.657 74.5817C71.9687 74.3785 72.328 74.2707 72.6945 74.2705H80.5914C80.9579 74.2707 81.3171 74.3785 81.6289 74.5817C81.9406 74.785 82.1925 75.0757 82.3563 75.4214L84.3305 79.5835C84.4687 79.8728 84.5398 80.1912 84.5398 80.5138V84.676C84.5398 85.2279 84.3318 85.7573 83.9616 86.1475C83.5913 86.5378 83.0892 86.7571 82.5656 86.7571H78.6172V82.5949H80.5914V81.0049L79.3713 78.4327H73.9146L72.6945 81.0049V82.5949H74.6687V86.7571H70.7203C70.1967 86.7571 69.6946 86.5378 69.3243 86.1475C68.9541 85.7573 68.7461 85.2279 68.7461 84.676V80.5138C68.7461 80.1912 68.8172 79.8728 68.9554 79.5835L70.9296 75.4214Z" fill="#361997"></path><path fill-rule="evenodd" clip-rule="evenodd" d="M79.2494 75.1779C79.0223 75.9957 78.6966 76.9343 78.2228 77.6002L75.064 75.103C75.062 75.1071 75.062 75.1071 75.064 75.103C75.0739 75.0863 75.1212 75.0031 75.1903 74.8262C75.2732 74.6201 75.3641 74.3475 75.4568 74.0146C75.6424 73.3444 75.8083 72.5141 75.9208 71.6484C76.0333 70.7806 76.0847 69.9294 76.059 69.2114C76.0314 68.4373 75.9208 68.0377 75.8655 67.917L79.3955 66.0565C79.8338 66.9764 79.97 68.096 80.0035 69.0533C80.0316 70.1088 79.9748 71.1649 79.8338 72.2103C79.6975 73.2508 79.4942 74.2872 79.2474 75.1779H79.2494Z" fill="#361997"></path><path fill-rule="evenodd" clip-rule="evenodd" d="M39.8998 75.1779C40.1249 75.9957 40.4526 76.9343 40.9264 77.6002L44.0851 75.103C44.0851 75.1071 44.0851 75.1071 44.0851 75.103C44.0364 75.0139 43.9935 74.9214 43.9568 74.8262C43.8536 74.5611 43.7646 74.2901 43.6902 74.0146C43.482 73.2386 43.327 72.4478 43.2263 71.6484C43.1158 70.8416 43.0695 70.0264 43.0881 69.2114C43.1158 68.4373 43.2263 68.0377 43.2836 67.917L39.7498 66.0565C39.3154 66.9764 39.1772 68.096 39.1437 69.0533C39.1156 70.1088 39.1724 71.1649 39.3135 72.2103C39.4497 73.2508 39.653 74.2872 39.8998 75.1779V75.1779Z" fill="#361997"></path><path fill-rule="evenodd" clip-rule="evenodd" d="M47.4967 25.3899C47.4673 25.4426 47.4357 25.494 47.402 25.5439L47.398 25.548L47.3822 25.5688L47.3171 25.6687C46.9039 26.2927 46.5017 26.9248 46.1108 27.5646C45.3211 28.8549 44.2709 30.6654 43.2245 32.7465C41.0806 37.0085 39.132 42.0614 39.132 46.0987C39.132 47.9696 39.6256 49.2661 40.2849 50.2047C40.9641 51.1662 41.9018 51.8696 42.9284 52.3732C43.416 52.6125 43.9096 52.8019 44.3795 52.9496C44.0044 51.1635 43.7216 49.3573 43.5325 47.5388C43.3094 45.3037 43.2443 42.8252 43.6431 40.6338C44.0359 38.4861 44.9618 36.1782 47.0821 34.9774C49.9033 33.3812 54.6769 31.246 58.8859 29.7747C60.9845 29.0401 63.0318 28.4386 64.6684 28.1639C65.4719 28.0307 66.2971 27.9558 67.0236 28.0328C67.5922 28.0953 68.7708 28.3221 69.4223 29.448C74.7132 37.4997 74.7921 44.8771 73.4516 50.265C73.0647 51.8217 72.5632 53.2035 72.046 54.3773C72.4823 54.2025 72.9285 54.0027 73.3727 53.7779C76.2353 52.3212 78.6162 50.0028 78.6162 46.0987C78.6162 41.4745 77.0171 36.3468 75.3232 32.2512C74.4202 30.0758 73.4012 27.9559 72.2711 25.9018L72.0855 25.5709C71.8754 25.3365 71.6561 25.1116 71.4281 24.8966C70.6629 24.1794 69.8354 23.5398 68.9564 22.9862C66.7512 21.5835 63.4246 20.1622 58.9827 20.1622C54.5525 20.1622 51.6544 21.5752 49.8895 22.8988C49.1904 23.4174 48.5533 24.0232 47.9923 24.7031C47.8182 24.9164 47.656 25.1401 47.5066 25.3732L47.4967 25.3899V25.3899ZM73.6747 24.3243L75.3508 23.2214L75.3528 23.2255L75.3587 23.2359L75.3765 23.2671L75.4397 23.3774C75.8015 24.0129 76.151 24.6561 76.488 25.3066C77.1592 26.601 78.0496 28.4282 78.9419 30.5884C80.7088 34.8546 82.5646 40.613 82.5646 46.0987C82.5646 52.3066 78.5865 55.7487 75.0883 57.5259C73.5583 58.2897 71.9536 58.8745 70.3028 59.2699C69.5874 59.4442 68.8647 59.583 68.1371 59.6861L68.0976 59.6882L68.0857 59.6903H68.0818C68.0818 59.6903 68.0778 59.6903 67.8705 57.6217L68.0778 59.6903C67.6849 59.7338 67.2887 59.652 66.9403 59.4556C66.5919 59.2591 66.3075 58.957 66.1238 58.5883C65.9401 58.2196 65.8655 57.8012 65.9098 57.3874C65.9541 56.9735 66.1151 56.5832 66.3721 56.2669L66.3741 56.2648L66.382 56.2565L66.4373 56.1836C66.8422 55.6303 67.2147 55.0513 67.5527 54.4501C68.4721 52.8131 69.1717 51.0495 69.6315 49.2099C70.6956 44.9354 70.741 38.9648 66.4017 32.1638C66.153 32.1638 65.7858 32.1929 65.2863 32.2762C63.9636 32.4968 62.1552 33.0149 60.1297 33.7246C56.0885 35.1397 51.53 37.1834 48.9497 38.6443C48.3693 38.9731 47.8225 39.7701 47.5224 41.4184C47.2282 43.027 47.2539 45.0394 47.4592 47.1039C47.6626 49.1433 48.0298 51.112 48.3476 52.5792C48.5094 53.3228 48.6871 54.0625 48.8806 54.7976L48.9122 54.9163L48.9201 54.9433V54.9475C49.009 55.2622 49.026 55.5946 48.9696 55.9176C48.9133 56.2405 48.7853 56.5449 48.596 56.8057C48.4067 57.0665 48.1616 57.2764 47.8806 57.4182C47.5997 57.56 47.2909 57.6297 46.9795 57.6217L47.0288 55.5406L46.9775 57.6217H46.9558L46.9203 57.6196C46.7568 57.6129 46.5935 57.6011 46.4307 57.5842C46.0014 57.543 45.574 57.4833 45.1494 57.4052C43.8063 57.1658 42.4988 56.7418 41.2602 56.1441C39.819 55.4365 38.287 54.3502 37.1144 52.6833C35.9239 50.9913 35.1836 48.8145 35.1836 46.0987C35.1836 40.9647 37.5566 35.1314 39.7361 30.7986C41.0476 28.201 42.5018 25.6862 44.0912 23.2671L44.1544 23.1735L44.1781 23.134C44.427 22.7362 44.6993 22.3554 44.9934 21.9935C45.7635 21.0566 46.6386 20.2215 47.5994 19.5066C49.9961 17.7086 53.6878 16 58.9827 16C64.2637 16 68.2851 17.7002 70.9937 19.4192C72.3461 20.2787 73.3707 21.1403 74.0676 21.8C74.4481 22.1614 74.8105 22.5435 75.1534 22.9446L75.1731 22.9695L75.183 22.98L75.185 22.9841C75.187 22.9841 75.1889 22.9862 73.6747 24.3243V24.3243ZM66.7314 32.1908C66.7295 32.1929 66.7117 32.1908 66.6801 32.1804C66.6977 32.1818 66.715 32.1861 66.7314 32.1929V32.1908ZM73.6747 24.3243L75.187 22.9841C75.2462 23.059 75.3015 23.1402 75.3508 23.2214L73.6767 24.3243H73.6747Z" fill="#361997"></path><path fill-rule="evenodd" clip-rule="evenodd" d="M47.9731 52.1046L44.6445 54.4437C45.8481 57.0787 47.6888 59.3329 49.9815 60.9796C52.2742 62.6263 54.9379 63.6074 57.7045 63.824C60.4712 64.0407 63.2431 63.4853 65.7415 62.2138C68.2398 60.9423 70.3763 58.9995 71.936 56.581H67.7606L67.6461 55.6112C66.3101 57.1615 64.6257 58.3327 62.7479 59.0172C60.87 59.7017 58.8591 59.8774 56.9 59.5282C54.9409 59.179 53.0966 58.3161 51.5366 57.0188C49.9767 55.7216 48.7513 54.0317 47.9731 52.1046V52.1046Z" fill="#361997"></path><circle cx="58.7532" cy="58.7532" r="56.7532" stroke="#361997" stroke-width="4"></circle></svg>