<svg xmlns="http://www.w3.org/2000/svg" width="118" height="118" viewBox="0 0 118 118" fill="none"><path d="M36.0736 25.1927L32.5975 28.6638L37.7696 33.8334L41.2407 30.3623L36.0711 25.1927H36.0736ZM81.4371 25.1927L76.265 30.3623L79.7386 33.8334L84.9082 28.6663L81.4346 25.1927H81.4371ZM58.7541 26.7333C57.9394 26.7431 57.1148 26.79 56.2853 26.8913C56.2606 26.8913 56.2359 26.8863 56.2113 26.8913C46.198 28.0392 38.2288 36.1294 36.8438 46.0982C35.7378 54.1217 39.046 61.3972 44.5587 66.0829C46.8137 68.0074 48.3389 70.6483 48.879 73.5632V88.3758H54.5078C55.3669 89.8496 56.9346 90.8446 58.7541 90.8446C60.5736 90.8446 62.1412 89.8496 63.0004 88.3758H68.6291V78.5007H68.8612V75.5679C68.8612 71.9487 70.7424 68.2998 73.7987 65.4632C77.887 61.37 80.973 55.5561 80.973 48.8781C80.973 36.6824 70.935 26.6197 58.7541 26.7333V26.7333ZM58.7541 31.6708C68.2959 31.5375 76.0354 39.3486 76.0354 48.8781C76.0354 54.0476 73.6407 58.6 70.3252 61.9131L70.4042 61.9921C67.1093 65.0304 64.9788 69.1239 64.3804 73.5657H53.582C53.0389 69.3342 51.2244 65.2386 47.7952 62.3007C43.4329 58.5976 40.8333 53.0182 41.7023 46.7179C42.7812 38.9413 49.0913 32.6879 56.8235 31.8313C57.4619 31.7422 58.1048 31.6895 58.7491 31.6733L58.7541 31.6708ZM24.1914 48.8781V53.8156H31.5977V48.8781H24.1914ZM85.9105 48.8781V53.8156H93.3168V48.8781H85.9105ZM37.7696 68.8602L32.6 74.0273L36.0736 77.5009L41.2382 72.3313L37.7696 68.8602ZM79.7386 68.8602L76.2675 72.3313L81.4346 77.5009L84.9082 74.0273L79.7386 68.8602ZM53.8166 78.5032H63.6916V83.4407H53.8166V78.5032Z" fill="#361997"></path><circle cx="58.7532" cy="58.7532" r="56.7532" stroke="#361997" stroke-width="4"></circle></svg>